<?xml version="1.0" encoding="UTF-8" standalone="no" ?>
<!DOCTYPE svg PUBLIC "-//W3C//DTD SVG 1.1//EN" "http://www.w3.org/Graphics/SVG/1.1/DTD/svg11.dtd">
<svg xmlns="http://www.w3.org/2000/svg" xmlns:xlink="http://www.w3.org/1999/xlink" version="1.1" width="1080" height="1080" viewBox="0 0 1080 1080" xml:space="preserve">
<desc>Created with Fabric.js 5.2.4</desc>
<defs>
</defs>
<rect x="0" y="0" width="100%" height="100%" fill="transparent"></rect>
<g transform="matrix(1 0 0 1 540 540)" id="a7c37d21-c3f1-478a-b80e-d07a16a2e66d"  >
<rect style="stroke: none; stroke-width: 1; stroke-dasharray: none; stroke-linecap: butt; stroke-dashoffset: 0; stroke-linejoin: miter; stroke-miterlimit: 4; fill: rgb(255,255,255); fill-rule: nonzero; opacity: 1; visibility: hidden;" vector-effect="non-scaling-stroke"  x="-540" y="-540" rx="0" ry="0" width="1080" height="1080" />
</g>
<g transform="matrix(1 0 0 1 540 540)" id="cdd37882-2534-4422-a65a-0bf8e3290f3e"  >
</g>
<g transform="matrix(NaN NaN NaN NaN 0 0)"  >
<g style=""   >
</g>
</g>
<g transform="matrix(NaN NaN NaN NaN 0 0)"  >
<g style=""   >
</g>
</g>
<g transform="matrix(NaN NaN NaN NaN 0 0)"  >
<g style=""   >
</g>
</g>
<g transform="matrix(NaN NaN NaN NaN 0 0)"  >
<g style=""   >
</g>
</g>
<g transform="matrix(1 0 0 1 540 540)" id="50e99e14-08d2-493c-ad7d-b3d49672d23e"  >
<path style="stroke: rgb(0,0,0); stroke-width: 0; stroke-dasharray: none; stroke-linecap: butt; stroke-dashoffset: 0; stroke-linejoin: miter; stroke-miterlimit: 4; fill: rgb(56,67,81); fill-rule: nonzero; opacity: 1;" vector-effect="non-scaling-stroke"  transform=" translate(-481.92, 493.42)" d="M 170 -478 Q 149 -478 136.5 -493 Q 124 -508 129 -528 Q 135 -553 145 -576 Q 155 -599 168 -621 Q 178 -638 197.5 -640 Q 217 -642 232 -628 Q 241 -619 243 -605.5 Q 245 -592 238 -581 Q 228 -564 220.5 -545.5 Q 213 -527 208 -508 Q 205 -495 193.5 -486.5 Q 182 -478 170 -478 Z M 438 -130 Q 438 -108 423 -96 Q 408 -84 388 -89 Q 364 -96 341 -105.5 Q 318 -115 295 -128 Q 278 -138 276 -157.5 Q 274 -177 288 -192 Q 297 -201 310.5 -203 Q 324 -205 335 -198 Q 352 -188 370.5 -180.5 Q 389 -173 408 -168 Q 421 -165 429.5 -153.5 Q 438 -142 438 -130 Z M 232 -248 Q 217 -234 197.5 -236 Q 178 -238 168 -255 Q 155 -278 145.5 -301 Q 136 -324 129 -348 Q 124 -368 136 -383 Q 148 -398 170 -398 Q 183 -398 194 -389.5 Q 205 -381 208 -368 Q 213 -349 220.5 -330.5 Q 228 -312 238 -295 Q 245 -284 243 -270 Q 241 -256 232 -248 Z M 567 -90 Q 547 -85 532.5 -97 Q 518 -109 518 -130 Q 518 -143 526.5 -154 Q 535 -165 548 -168 Q 640 -192 699 -266.5 Q 758 -341 758 -438 Q 758 -555 676.5 -636.5 Q 595 -718 478 -718 L 470 -718 L 506 -682 Q 517 -671 517 -654 Q 517 -637 506 -626 Q 495 -615 478 -615 Q 461 -615 450 -626 L 346 -730 Q 340 -736 337.5 -743 Q 335 -750 335 -758 Q 335 -766 337.5 -773 Q 340 -780 346 -786 L 449 -890 Q 461 -901 478 -901 Q 495 -901 506 -890 Q 518 -878 518 -861 Q 518 -844 507 -833 L 472 -798 L 478 -798 Q 628 -798 733 -693 Q 838 -588 838 -438 Q 838 -314 762 -218 Q 686 -122 567 -90 Z" stroke-linecap="round" />
</g>
<g transform="matrix(NaN NaN NaN NaN 0 0)"  >
<g style=""   >
</g>
</g>
<g transform="matrix(NaN NaN NaN NaN 0 0)"  >
<g style=""   >
</g>
</g>
</svg>