<svg width="960" height="960" xmlns="http://www.w3.org/2000/svg">

 <g>
  <title>Layer 1</title>
  <path id="svg_1" d="m353,-480l59,-59q12,-12 12,-28t-12,-28q-12,-12 -28.5,-12t-28.5,12l-87,87q-6,6 -8.5,13t-2.5,15q0,8 2.5,15t8.5,13l87,87q12,12 28.5,12t28.5,-12q12,-12 12,-28t-12,-28l-59,-59zm254,0l-59,59q-12,12 -12,28t12,28q12,12 28.5,12t28.5,-12l87,-87q6,-6 8.5,-13t2.5,-15q0,-8 -2.5,-15t-8.5,-13l-87,-87q-6,-6 -13.5,-9t-15,-3q-7.5,0 -15,3t-13.5,9q-12,12 -12,28t12,28l59,59zm-407,360q-33,0 -56.5,-23.5t-23.5,-56.5l0,-560q0,-33 23.5,-56.5t56.5,-23.5l560,0q33,0 56.5,23.5t23.5,56.5l0,560q0,33 -23.5,56.5t-56.5,23.5l-560,0zm0,-80l560,0l0,-560l-560,0l0,560zm0,-560l0,560l0,-560z"/>
  <g>
   <path stroke="#ffffff" fill="#ffffff" d="m353,480l59,-59q12,-12 12,-28t-12,-28q-12,-12 -28.5,-12t-28.5,12l-87,87q-6,6 -8.5,13t-2.5,15q0,8 2.5,15t8.5,13l87,87q12,12 28.5,12t28.5,-12q12,-12 12,-28t-12,-28l-59,-59zm254,0l-59,59q-12,12 -12,28t12,28q12,12 28.5,12t28.5,-12l87,-87q6,-6 8.5,-13t2.5,-15q0,-8 -2.5,-15t-8.5,-13l-87,-87q-6,-6 -13.5,-9t-15,-3q-7.5,0 -15,3t-13.5,9q-12,12 -12,28t12,28l59,59zm-407,360q-33,0 -56.5,-23.5t-23.5,-56.5l0,-560q0,-33 23.5,-56.5t56.5,-23.5l560,0q33,0 56.5,23.5t23.5,56.5l0,560q0,33 -23.5,56.5t-56.5,23.5l-560,0zm0,-80l560,0l0,-560l-560,0l0,560zm0,-560l0,560l0,-560z"/>
  </g>
 </g>
</svg>